<svg xmlns="http://www.w3.org/2000/svg" id="full" viewBox="0 0 840.49 970.59"><defs><style>.cls-1{fill:#d08d00}.cls-2{fill:#f9ff73}.cls-3{fill:#ffd22e}.cls-4{fill:#ff5c7c}.cls-5{fill:#d0008d}.cls-6{fill:#ffb88b}.cls-7{fill:#5c8fff}.cls-8{fill:#5cefff}.cls-9{fill:#2eb5ff}</style></defs><g id="Layer_5_copy" data-name="Layer 5 copy"><polygon points="420.24 485.3 420.24 485.3 420.24 970.59 840.49 727.96 840.49 727.96 840.49 242.66 420.24 485.3" class="cls-1"/><polygon points="420.24 0 0 242.64 420.24 485.3 840.49 242.66 420.24 0" class="cls-2"/><polygon points="420.24 485.3 0 242.64 0 727.93 0 727.93 420.24 970.59 420.24 485.3 420.24 485.3" class="cls-3"/><polygon points="630.37 606.63 420.24 485.3 420.24 727.95 630.37 606.63" class="cls-4"/><polygon points="420.24 727.95 420.24 727.95 420.24 970.59 630.37 849.27 630.37 849.27 630.37 606.63 420.24 727.95" class="cls-5"/><polygon points="210.12 606.62 420.24 727.95 420.24 485.3 210.12 606.62" class="cls-6"/><polygon points="420.24 727.94 210.12 606.62 210.12 849.26 210.12 849.26 420.24 970.59 420.24 727.94 420.24 727.94" class="cls-4"/><polygon points="420.24 284.84 420.24 284.84 420.24 485.3 593.83 385.07 593.83 385.07 593.83 184.61 420.24 284.84" class="cls-7"/><polygon points="420.3 84.37 420.3 284.83 593.88 184.6 420.3 84.37" class="cls-8"/><polygon points="420.27 284.83 420.27 84.37 246.68 184.6 420.27 284.83" class="cls-8"/><polygon points="420.24 284.83 246.66 184.6 246.66 385.06 246.66 385.06 420.24 485.29 420.24 284.83 420.24 284.83" class="cls-9"/></g></svg>